<svg width="24" height="24" viewBox="0 0 24 24" fill="none" xmlns="http://www.w3.org/2000/svg">
<path fill-rule="evenodd" clip-rule="evenodd" d="M20.9617 21.3427L19.3841 6.8671C19.351 6.56406 19.0859 6.33395 18.7697 6.33395H15.8045V5.68256C15.8045 3.65207 14.0899 2 11.9826 2C9.87513 2 8.16055 3.65207 8.16055 5.68256V6.33395H5.19539C4.87915 6.33395 4.61405 6.56406 4.58095 6.8671L3.00335 21.3427C2.98514 21.5103 3.04168 21.6777 3.15871 21.8032C3.27589 21.9284 3.44281 22 3.6178 22H20.3471C20.5223 22 20.6892 21.9284 20.8062 21.8032C20.9235 21.6777 20.9799 21.5103 20.9617 21.3427ZM9.39609 5.68256C9.39609 4.3085 10.5564 3.19049 11.9826 3.19049C13.4087 3.19049 14.569 4.3085 14.569 5.68256V6.33395H9.39609V5.68256ZM5.75172 7.52444L4.30382 20.8095H19.6612L18.2133 7.52444H15.8045V8.83624C15.8045 9.16492 15.5278 9.43149 15.1867 9.43149C14.8456 9.43149 14.569 9.16492 14.569 8.83624V7.52444H9.39609V8.83624C9.39609 9.16492 9.11943 9.43149 8.77832 9.43149C8.43721 9.43149 8.16055 9.16492 8.16055 8.83624V7.52444H5.75172Z" fill="black"/>
</svg>
