<svg width="24" height="24" viewBox="0 0 24 24" fill="none" xmlns="http://www.w3.org/2000/svg">
<rect width="24" height="24" rx="12" fill="#F8D3D5"/>
<path d="M13.0575 12L15.525 9.5325C15.6675 9.3975 15.75 9.21 15.75 9C15.75 8.5875 15.4125 8.25 15 8.25C14.79 8.25 14.6025 8.3325 14.4675 8.4675L12 10.9425L9.5325 8.4675C9.3975 8.3325 9.21 8.25 9 8.25C8.5875 8.25 8.25 8.5875 8.25 9C8.25 9.21 8.3325 9.3975 8.4675 9.5325L10.9425 12L8.475 14.4675C8.3325 14.6025 8.25 14.79 8.25 15C8.25 15.4125 8.5875 15.75 9 15.75C9.21 15.75 9.3975 15.6675 9.5325 15.5325L12 13.0575L14.4675 15.525C14.6025 15.6675 14.79 15.75 15 15.75C15.4125 15.75 15.75 15.4125 15.75 15C15.75 14.79 15.6675 14.6025 15.5325 14.4675L13.0575 12Z" fill="#DB232E"/>
<mask id="mask0" mask-type="alpha" maskUnits="userSpaceOnUse" x="8" y="8" width="8" height="8">
<path d="M13.0575 12L15.525 9.5325C15.6675 9.3975 15.75 9.21 15.75 9C15.75 8.5875 15.4125 8.25 15 8.25C14.79 8.25 14.6025 8.3325 14.4675 8.4675L12 10.9425L9.5325 8.4675C9.3975 8.3325 9.21 8.25 9 8.25C8.5875 8.25 8.25 8.5875 8.25 9C8.25 9.21 8.3325 9.3975 8.4675 9.5325L10.9425 12L8.475 14.4675C8.3325 14.6025 8.25 14.79 8.25 15C8.25 15.4125 8.5875 15.75 9 15.75C9.21 15.75 9.3975 15.6675 9.5325 15.5325L12 13.0575L14.4675 15.525C14.6025 15.6675 14.79 15.75 15 15.75C15.4125 15.75 15.75 15.4125 15.75 15C15.75 14.79 15.6675 14.6025 15.5325 14.4675L13.0575 12Z" fill="white"/>
</mask>
<g mask="url(#mask0)">
</g>
</svg>
