<svg width="24" height="24" viewBox="0 0 24 24" fill="none" xmlns="http://www.w3.org/2000/svg">
<path fill-rule="evenodd" clip-rule="evenodd" d="M11.36 21.6525C11.6002 21.8629 11.9084 21.9788 12.2281 21.9788C12.5476 21.9788 12.856 21.8629 13.096 21.6529C14.0052 20.8578 14.8812 20.1111 15.6543 19.4525L15.6546 19.4523C17.9165 17.5246 19.8698 15.8599 21.2291 14.2197C22.7486 12.3863 23.4561 10.6479 23.4561 8.74873C23.4561 6.90354 22.8236 5.20124 21.6749 3.95518C20.5124 2.69439 18.9172 2 17.183 2C15.8868 2 14.6996 2.40981 13.6547 3.21796C13.1272 3.62589 12.6494 4.12514 12.2281 4.70748C11.8069 4.12514 11.3289 3.62589 10.8016 3.21796C9.75668 2.40981 8.56956 2 7.2733 2C5.53896 2 3.94391 2.69439 2.78146 3.95518C1.63271 5.20124 1 6.90354 1 8.74873C1 10.6479 1.70775 12.3863 3.22725 14.2199C4.58655 15.86 6.54019 17.5249 8.80256 19.4529L8.8065 19.4563C9.57816 20.1139 10.4528 20.8593 11.36 21.6525ZM3.74842 4.84677C4.65903 3.85924 5.91074 3.31545 7.2733 3.31545C8.27128 3.31545 9.18771 3.63274 9.99688 4.25843C10.7182 4.81627 11.2205 5.52145 11.5148 6.01487C11.6663 6.26861 11.9329 6.42006 12.2281 6.42006C12.5233 6.42006 12.7899 6.26861 12.9413 6.01487C13.2358 5.52145 13.7381 4.81627 14.4593 4.25843C15.2684 3.63274 16.1849 3.31545 17.183 3.31545C18.5454 3.31545 19.7973 3.85924 20.7077 4.84677C21.6319 5.8492 22.1409 7.23489 22.1409 8.74873C22.1409 10.346 21.5472 11.7745 20.2164 13.3806C18.931 14.9315 17.02 16.5603 14.8071 18.4463L14.8011 18.4515C14.0249 19.1126 13.1455 19.8622 12.2262 20.6628C11.3123 19.8637 10.4343 19.1154 9.65971 18.4552L9.6556 18.4518L9.65427 18.4507C7.43924 16.563 5.5262 14.9326 4.23996 13.3806C2.90892 11.7745 2.31528 10.346 2.31528 8.74873C2.31528 7.23489 2.82429 5.8492 3.74842 4.84677Z" fill="black"/>
</svg>
