<svg width="24" height="24" viewBox="0 0 24 24" fill="none" xmlns="http://www.w3.org/2000/svg">
<path fill-rule="evenodd" clip-rule="evenodd" d="M12.1944 21.7222C12.0093 21.9074 11.7546 22 11.4306 22C11.1065 22 10.8981 21.9074 10.8056 21.7222C9.23148 19.8704 7.88889 18.1111 6.77778 16.4444C4.92593 13.6667 4 11.5139 4 9.98611C4 8.45833 4.32407 7.09259 4.97222 5.88889C5.62037 4.68518 6.52315 3.73611 7.68056 3.04167C8.83796 2.34722 10.1111 2 11.5 2C12.8889 2 14.162 2.34722 15.3194 3.04167C16.4769 3.73611 17.3796 4.68518 18.0278 5.88889C18.6759 7.09259 19 8.45833 19 9.98611C19 11.5139 18.0741 13.6667 16.2222 16.4444C15.0185 18.2037 13.6759 19.963 12.1944 21.7222ZM7.47222 14.6389C8.58333 16.3056 9.92593 18.1111 11.5 20.0556C13.0741 18.1111 14.4167 16.3056 15.5278 14.6389C16.7315 12.6019 17.3333 11.0278 17.3333 9.91667C17.3333 8.80556 17.0787 7.76389 16.5694 6.79167C16.0602 5.81944 15.3426 5.05556 14.4167 4.5C13.4907 3.94444 12.4954 3.66667 11.4306 3.66667C10.3657 3.66667 9.39352 3.94444 8.51389 4.5C7.63426 5.05556 6.93981 5.81944 6.43056 6.79167C5.9213 7.76389 5.66667 8.80556 5.66667 9.91667C5.66667 11.0278 6.26852 12.6019 7.47222 14.6389ZM11.5 12.8333C12.4259 12.8333 13.213 12.5093 13.8611 11.8611C14.5093 11.213 14.8333 10.4259 14.8333 9.5C14.8333 8.57407 14.5093 7.78704 13.8611 7.13889C13.213 6.49074 12.4259 6.16667 11.5 6.16667C10.5741 6.16667 9.78704 6.49074 9.13889 7.13889C8.49074 7.78704 8.16667 8.57407 8.16667 9.5C8.16667 10.4259 8.49074 11.213 9.13889 11.8611C9.78704 12.5093 10.5741 12.8333 11.5 12.8333ZM10.3194 10.6806C10.6435 11.0046 11.037 11.1667 11.5 11.1667C11.963 11.1667 12.3565 11.0046 12.6806 10.6806C13.0046 10.3565 13.1667 9.96296 13.1667 9.5C13.1667 9.03704 13.0046 8.64352 12.6806 8.31944C12.3565 7.99537 11.963 7.83333 11.5 7.83333C11.037 7.83333 10.6435 7.99537 10.3194 8.31944C9.99537 8.64352 9.83333 9.03704 9.83333 9.5C9.83333 9.96296 9.99537 10.3565 10.3194 10.6806Z" fill="white"/>
</svg>
