<svg width="32" height="32" viewBox="0 0 32 32" fill="none" xmlns="http://www.w3.org/2000/svg">
<circle cx="16" cy="16" r="16" fill="#DB232E"/>
<path d="M18.2835 16.2857C18.2835 17.5446 17.2567 18.5714 15.9978 18.5714C14.7388 18.5714 13.7121 17.5446 13.7121 16.2857C13.7121 15.0268 14.7388 14 15.9978 14C17.2567 14 18.2835 15.0268 18.2835 16.2857ZM19.5156 16.2857C19.5156 14.3393 17.9442 12.7679 15.9978 12.7679C14.0513 12.7679 12.4799 14.3393 12.4799 16.2857C12.4799 18.2321 14.0513 19.8036 15.9978 19.8036C17.9442 19.8036 19.5156 18.2321 19.5156 16.2857ZM20.4799 12.625C20.4799 12.1696 20.1138 11.8036 19.6585 11.8036C19.2031 11.8036 18.8371 12.1696 18.8371 12.625C18.8371 13.0804 19.2031 13.4464 19.6585 13.4464C20.1138 13.4464 20.4799 13.0804 20.4799 12.625ZM15.9978 10.6607C16.9978 10.6607 19.1406 10.5804 20.0424 10.9375C20.3549 11.0625 20.5871 11.2143 20.8281 11.4554C21.0692 11.6964 21.221 11.9286 21.346 12.2411C21.7031 13.1429 21.6228 15.2857 21.6228 16.2857C21.6228 17.2857 21.7031 19.4286 21.346 20.3304C21.221 20.6429 21.0692 20.875 20.8281 21.1161C20.5871 21.3571 20.3549 21.5089 20.0424 21.6339C19.1406 21.9911 16.9978 21.9107 15.9978 21.9107C14.9978 21.9107 12.8549 21.9911 11.9531 21.6339C11.6406 21.5089 11.4085 21.3571 11.1674 21.1161C10.9263 20.875 10.7746 20.6429 10.6496 20.3304C10.2924 19.4286 10.3728 17.2857 10.3728 16.2857C10.3728 15.2857 10.2924 13.1429 10.6496 12.2411C10.7746 11.9286 10.9263 11.6964 11.1674 11.4554C11.4085 11.2143 11.6406 11.0625 11.9531 10.9375C12.8549 10.5804 14.9978 10.6607 15.9978 10.6607ZM22.8549 16.2857C22.8549 15.3393 22.8638 14.4018 22.8103 13.4554C22.7567 12.3571 22.5067 11.3839 21.7031 10.5804C20.8996 9.77678 19.9263 9.52678 18.8281 9.47321C17.8817 9.41964 16.9442 9.42857 15.9978 9.42857C15.0513 9.42857 14.1138 9.41964 13.1674 9.47321C12.0692 9.52678 11.096 9.77678 10.2924 10.5804C9.48884 11.3839 9.23884 12.3571 9.18527 13.4554C9.1317 14.4018 9.14062 15.3393 9.14062 16.2857C9.14062 17.2321 9.1317 18.1696 9.18527 19.1161C9.23884 20.2143 9.48884 21.1875 10.2924 21.9911C11.096 22.7946 12.0692 23.0446 13.1674 23.0982C14.1138 23.1518 15.0513 23.1429 15.9978 23.1429C16.9442 23.1429 17.8817 23.1518 18.8281 23.0982C19.9263 23.0446 20.8996 22.7946 21.7031 21.9911C22.5067 21.1875 22.7567 20.2143 22.8103 19.1161C22.8638 18.1696 22.8549 17.2321 22.8549 16.2857Z" fill="white"/>
</svg>
