<svg width="24" height="24" viewBox="0 0 24 24" fill="none" xmlns="http://www.w3.org/2000/svg">
<path fill-rule="evenodd" clip-rule="evenodd" d="M16.3737 13.7302C16.8969 13.7302 17.3905 13.9581 17.7998 14.3842L20.1163 16.7091C20.5424 17.1311 20.7661 17.6332 20.7661 18.1564C20.7661 18.6754 20.5467 19.1817 20.1289 19.6163C19.9475 19.8062 19.7618 19.9876 19.5804 20.1606C19.5607 20.1797 19.5411 20.1986 19.5216 20.2175C19.2773 20.4537 19.0452 20.6782 18.842 20.9243C18.8399 20.9285 18.8367 20.9317 18.8336 20.9349C18.8304 20.938 18.8272 20.9412 18.8251 20.9454C18.1838 21.6416 17.3652 21.9918 16.3905 21.9918C16.3062 21.9918 16.2133 21.9876 16.1247 21.9834C14.6775 21.8905 13.3821 21.3462 12.4116 20.8863C9.87155 19.6585 7.64792 17.9159 5.79982 15.7091C4.27661 13.8779 3.25552 12.169 2.57197 10.3251C2.29349 9.57409 1.93062 8.42641 2.03189 7.19435C2.0994 6.43063 2.40742 5.77241 2.9475 5.23232L4.3821 3.78506L4.39054 3.77663C4.81248 3.37156 5.31037 3.15637 5.82514 3.15637C6.33991 3.15637 6.82936 3.37156 7.23864 3.77663C7.5129 4.02979 7.77872 4.29983 8.03189 4.56144C8.15847 4.69645 8.29349 4.83147 8.42429 4.96227L8.42429 4.96228L9.57619 6.11418C10.4623 7.00025 10.4623 8.14793 9.57619 9.03401C9.51712 9.09308 9.45805 9.15321 9.39898 9.21333C9.33991 9.27346 9.28083 9.33359 9.22176 9.39266C9.19164 9.42318 9.16145 9.45383 9.13116 9.48456C8.84743 9.77249 8.55548 10.0688 8.24286 10.3547C8.50024 10.9243 8.85467 11.4855 9.3821 12.1522C10.4707 13.4897 11.6057 14.5235 12.8547 15.3167C12.977 15.3927 13.1205 15.4644 13.2724 15.5403L13.2724 15.5403C13.3082 15.5589 13.3444 15.5775 13.381 15.5963C13.4523 15.6329 13.5248 15.6701 13.5973 15.7091L14.9306 14.38C15.3568 13.9538 15.8547 13.7302 16.3737 13.7302ZM18.8918 19.2483C19.0373 19.1069 19.1753 18.9728 19.3104 18.8273C19.7407 18.38 19.7407 17.937 19.3062 17.5066L16.9813 15.1817L16.9728 15.1732C16.842 15.0298 16.6268 14.8652 16.3652 14.8652C16.0994 14.8652 15.8716 15.0382 15.7281 15.1817L14.2851 16.6247C14.2133 16.6965 13.9939 16.9159 13.6437 16.9159C13.5045 16.9159 13.3694 16.8821 13.226 16.8104C13.2175 16.8062 13.2091 16.8009 13.2007 16.7956C13.1922 16.7903 13.1838 16.7851 13.1753 16.7808C13.053 16.7049 12.9095 16.6332 12.7576 16.5572C12.5889 16.4728 12.4116 16.3842 12.2386 16.2745C10.8842 15.418 9.65636 14.2998 8.4918 12.8652L8.48759 12.861C7.84623 12.0467 7.42429 11.3631 7.12472 10.6374L7.11206 10.5994C7.03611 10.3589 6.9686 10.0045 7.33147 9.6416C7.33419 9.63615 7.33868 9.63246 7.34378 9.62826C7.34659 9.62596 7.34957 9.6235 7.35256 9.62051C7.71965 9.29139 8.05721 8.95384 8.41164 8.59097C8.49305 8.51236 8.5726 8.43188 8.65277 8.35078C8.69309 8.30999 8.73356 8.26905 8.7745 8.2281C9.22176 7.78084 9.22176 7.36734 8.7745 6.92009L7.62261 5.76819C7.55562 5.69911 7.48864 5.63107 7.42217 5.56355C7.35465 5.49498 7.28767 5.42694 7.22176 5.3589C6.96438 5.09308 6.71965 4.84414 6.46227 4.60363L6.44961 4.59097C6.31459 4.45595 6.0994 4.29561 5.83358 4.29561C5.61839 4.29561 5.39898 4.4011 5.19223 4.59519L3.75341 6.03401C3.4032 6.38422 3.21332 6.7935 3.17113 7.28717C3.10784 8.05933 3.2513 8.87789 3.6437 9.92852C4.28083 11.65 5.24286 13.2534 6.68168 14.9876C8.42429 17.0678 10.5213 18.7091 12.9095 19.8652C13.7829 20.283 14.9475 20.7724 16.2007 20.8526C16.264 20.8568 16.3315 20.8568 16.3948 20.8568C17.053 20.8568 17.5551 20.6416 17.9813 20.1859C18.2429 19.8779 18.5213 19.6036 18.7956 19.342C18.8281 19.3103 18.8601 19.2791 18.8918 19.2483Z" fill="white"/>
<path d="M12.8041 6.75554C13.9096 6.94119 14.9138 7.4644 15.7155 8.26609C16.5172 9.06777 17.0361 10.072 17.226 11.1775C17.2724 11.456 17.5129 11.6501 17.7872 11.6501C17.821 11.6501 17.8505 11.6458 17.8842 11.6416C18.1965 11.591 18.4032 11.2956 18.3526 10.9834C18.1248 9.64583 17.4918 8.42642 16.5256 7.46018C15.5593 6.49393 14.3399 5.86102 13.0024 5.63318C12.6902 5.58254 12.399 5.78929 12.3442 6.09731C12.2893 6.40533 12.4918 6.70491 12.8041 6.75554Z" fill="white"/>
<path d="M21.9686 10.8188C21.5931 8.61628 20.5551 6.61206 18.9601 5.01712C17.3652 3.42219 15.361 2.38421 13.1585 2.00868C12.8504 1.95383 12.5593 2.1648 12.5044 2.47282C12.4538 2.78506 12.6606 3.07619 12.9728 3.13105C14.939 3.46438 16.7323 4.39687 18.1585 5.81881C19.5846 7.24497 20.5129 9.03822 20.8462 11.0045C20.8926 11.2829 21.1331 11.477 21.4074 11.477C21.4412 11.477 21.4707 11.4728 21.5044 11.4686C21.8125 11.4222 22.0234 11.1268 21.9686 10.8188Z" fill="white"/>
</svg>
