<svg width="24" height="24" viewBox="0 0 24 24" fill="none" xmlns="http://www.w3.org/2000/svg">
<path fill-rule="evenodd" clip-rule="evenodd" d="M2.46084 7.75782C2.36124 7.51758 2.29678 7.27149 2.27334 7.03125C2.24991 6.79102 2.27041 6.55664 2.32022 6.32813C2.42569 5.85645 2.67178 5.41407 2.99991 5.08594L5.32022 2.76563C5.94131 2.14453 7.04288 2.14453 7.66397 2.76563L10.664 5.78907L10.7343 5.83594L10.7108 5.85938C11.0419 6.16114 11.2353 6.56836 11.2499 6.96094C11.2646 7.37989 11.1327 7.78125 10.8983 8.13282L10.8515 8.20313L9.30459 9.75C9.53311 10.2744 10.1601 11.6221 11.3905 12.7969C12.6298 13.9805 13.9481 14.6484 14.4843 14.9063L15.9608 13.4297C16.5819 12.8086 17.6835 12.8086 18.3046 13.4297L21.3749 16.5C21.996 17.1211 21.996 18.1992 21.3749 18.8203L21.2812 18.9141L19.0546 21.1641L19.0312 21.1641L19.0077 21.1875C18.3046 21.791 17.3173 22.0078 16.4062 21.7031L16.3827 21.7031C14.622 21.0147 11.0624 19.4766 7.87491 16.2891C4.71084 13.125 3.10245 9.62989 2.46084 7.80469C2.45938 7.79883 2.45425 7.79004 2.44913 7.78125C2.444 7.77247 2.43887 7.76368 2.43741 7.75782L2.46084 7.75782ZM4.05459 6.16407C3.87295 6.34571 3.75284 6.62989 3.77334 6.91407C3.7792 7.00782 3.80264 7.1045 3.84366 7.19532L3.84366 7.21875L3.86709 7.24219C4.43545 8.87696 5.96182 12.2432 8.92959 15.2109C11.8856 18.167 15.205 19.6318 16.8983 20.2969C16.9027 20.2983 16.9064 20.2976 16.9101 20.2969C16.9137 20.2961 16.9174 20.2954 16.9218 20.2969C17.329 20.4258 17.6747 20.3467 17.9999 20.0859L18.0233 20.0625C18.0263 20.0596 18.0307 20.061 18.0351 20.0625C18.0395 20.064 18.0439 20.0654 18.0468 20.0625L20.3202 17.7656C20.3847 17.7012 20.4169 17.6807 20.4169 17.6602C20.4169 17.6397 20.3847 17.6191 20.3202 17.5547L17.2499 14.4844C17.1855 14.4199 17.1649 14.3877 17.1444 14.3877C17.1239 14.3877 17.1034 14.4199 17.039 14.4844L15.164 16.3594L14.789 16.7109L14.3202 16.5234C14.3202 16.5234 12.1347 15.5947 10.3593 13.8984C8.54874 12.1729 7.68741 9.86719 7.68741 9.86719L7.52334 9.42188L7.87491 9.07032L9.65616 7.3125L9.65616 7.26563C9.65959 7.25919 9.66305 7.25274 9.66649 7.24631C9.71005 7.16501 9.75262 7.08555 9.74991 7.03125C9.74698 6.96094 9.72354 6.95801 9.72647 6.96094L6.58584 3.82032C6.52139 3.75586 6.50088 3.72364 6.48038 3.72364C6.45987 3.72364 6.43936 3.75586 6.37491 3.82032L4.05459 6.16407Z" fill="#222526"/>
</svg>
