<svg width="152" height="56" viewBox="0 0 152 56" fill="none" xmlns="http://www.w3.org/2000/svg">
<path d="M6.30283 46.0096C6.30283 46.0096 5.13767 44.8462 4.1314 43.5769C3.12513 42.2548 0.900741 44.4231 0.635933 47.4375C0.371124 50.4519 6.72652 52.9904 12.4993 54.3125C18.2722 55.6346 29.3412 54.2596 35.114 48.7596C40.8338 43.2596 42.052 39.0288 38.6624 32.2067C35.2729 25.3317 33.1014 23.6394 37.1265 17.399C41.1516 11.1587 56.5105 7.66827 63.5014 9.625C70.4924 11.5817 69.7509 12.9038 72.0812 11C74.4115 9.09615 78.2248 4.65385 75.5767 3.22596C72.9286 1.79808 59.6352 -1.58654 43.323 4.75962C27.0108 11.1058 21.238 24.9087 25.1042 31.9423C28.9704 38.976 29.6589 41.1442 25.8987 45.9038C22.1384 50.6635 11.9168 51.5096 6.30283 46.0096Z" fill="#770009"/>
<path fill-rule="evenodd" clip-rule="evenodd" d="M105.129 8.5144C103.858 8.35575 103.381 8.56728 102.692 9.8894C102.004 11.2115 100.574 13.5913 100.574 13.5913C100.574 13.5913 99.9384 9.99517 96.0193 9.46632C92.0471 8.93748 88.2868 12.8509 84.8973 19.1971C81.5078 25.5432 81.4018 29.0865 81.4018 29.0865C81.4018 29.0865 75.7349 35.75 73.8813 34.8509C72.661 34.2591 75.6407 30.5277 78.152 27.3828L78.152 27.3828C79.4556 25.7503 80.6329 24.2759 81.0311 23.4807C81.9802 21.5853 81.9102 21.4093 81.3077 19.8943L81.3077 19.8941C81.1705 19.5493 81.0058 19.135 80.8193 18.6154C79.813 15.8125 77.5886 11.7404 75.7879 11.7404C74.2302 11.7404 74.0563 12.8607 73.8205 14.3795L73.8205 14.3796C73.7757 14.6682 73.7286 14.9712 73.6694 15.2836C73.3517 17.2404 69.9091 24.5384 64.1893 31.3606C58.4694 38.1827 55.1858 40.2981 52.0611 40.2981C48.9363 40.2981 50.2604 36.2259 50.2604 36.2259C50.2604 36.2259 54.3384 36.2788 59.4757 31.4663C64.613 26.6538 68.1614 19.9375 64.1363 17.0817C60.0583 14.2259 51.9022 19.0913 45.8646 29.8269C39.8799 40.5625 48.7774 46.9615 55.4506 42.8365C62.1238 38.7115 68.797 30.6731 73.3517 22.2115C73.3517 22.2115 74.6227 24.274 73.9342 25.5961C73.7879 25.8772 73.4404 26.4141 72.984 27.1193C71.2935 29.7312 68.1085 34.6523 68.1085 37.4423C68.1085 40.9856 72.4513 40.9856 75.629 38.3942C77.3689 36.9513 78.5013 35.492 79.2638 34.5093C79.8707 33.7272 80.2433 33.247 80.5015 33.3173C80.6796 33.3658 80.8527 33.612 81.0905 33.9501C81.6306 34.718 82.5042 35.9601 84.5266 36.4375C87.4395 37.125 90.4053 35.4856 90.4053 35.4856C90.4053 35.4856 86.2743 42.2019 79.4952 45.9038C73.6069 49.0488 71.5346 47.8333 69.2435 46.4895C68.8763 46.2742 68.5035 46.0555 68.1085 45.8509C65.2485 44.3702 63.4478 44.6346 59.5287 45.375C55.5565 46.1154 51.8492 47.0144 51.8492 48.0721C51.8492 49.0769 60.376 53.7307 71.9217 52.6202C83.4673 51.5625 92.6297 46.0096 97.4492 34.6394C99.3388 30.132 100.746 26.5638 101.924 23.5755L101.924 23.5755C103.718 19.0257 104.981 15.8204 106.612 12.6923C108.832 8.47607 107.223 8.51113 105.904 8.5399C105.618 8.54614 105.346 8.55207 105.129 8.5144ZM55.0269 24.3269C58.4165 20.5192 60.5349 19.5673 61.2764 20.149C62.0179 20.7307 60.2701 23.9567 58.2576 26.5481C56.245 29.1394 52.9614 31.7307 51.3196 31.8365C51.3196 31.8365 51.6903 28.1346 55.0269 24.3269ZM91.5175 30.25C94.0067 26.8125 97.5551 20.3606 97.767 16.1827C97.767 16.1827 98.2966 13.0096 95.0659 14.0144C91.8353 15.0721 87.7572 26.0721 87.2806 30.0913C86.8039 34.0577 89.0813 33.6875 91.5175 30.25Z" fill="#770009"/>
<path d="M121.388 5.23555C121.388 7.66825 119.429 9.62498 116.992 9.62498C114.556 9.62498 112.597 7.66825 112.597 5.23555C112.597 2.80286 114.556 0.84613 116.992 0.84613C119.376 0.84613 121.388 2.80286 121.388 5.23555Z" fill="#770009"/>
<path fill-rule="evenodd" clip-rule="evenodd" d="M117.522 19.6731C120.7 13.2211 125.625 14.649 125.625 14.649C131.875 11.0529 134.947 16.2356 132.616 24.4327C130.392 32.524 123.984 40.2981 119.217 40.2981C114.503 40.2981 113.921 35.1154 113.921 35.1154C113.179 36.7548 109.79 39.7692 106.665 39.6106C103.54 39.399 100.68 36.4904 103.54 27.8702C106.4 19.25 111.802 11.8461 112.226 11.6875C112.65 11.5288 115.669 11.0529 116.887 12.2692C117.627 13.008 116.881 14.02 115.743 15.5659C115.008 16.565 114.108 17.7872 113.338 19.3029C111.379 23.2163 106.347 34.2163 108.254 35.5913C110.161 36.9663 113.815 31.4663 113.815 31.4663C113.815 31.4663 114.345 26.125 117.522 19.6731ZM119.005 32.3654C118.052 37.5481 119.747 39.399 121.653 37.2836C123.56 35.1683 126.738 27.6586 126.632 27.2884C126.606 27.1867 126.452 27.0605 126.227 26.876C125.515 26.2932 124.094 25.129 123.772 22.3173C123.772 22.3173 119.958 27.1827 119.005 32.3654Z" fill="#770009"/>
<path d="M138.547 17.7692C138.547 17.7692 139.13 16.3942 140.454 15.8654C141.778 15.3894 142.837 14.226 141.513 12.7452C140.189 11.2644 137.541 11.3173 137.117 11.899C136.694 12.4808 135.105 16.9231 135.581 19.3558C136.111 21.8413 137.912 20.9952 138.547 17.7692Z" fill="#770009"/>
<path d="M138.019 25.8077C138.019 25.8077 141.355 18.5096 144.109 16.8702C146.863 15.2836 151.683 15.7596 151.524 18.2452C151.365 20.7308 147.658 20.149 147.658 27.6058C147.658 35.0625 150.676 35.0096 147.499 41.9375C144.321 48.8654 135.053 47.3846 132.669 43.2596C130.286 39.1346 132.087 36.0673 134.046 35.75C135.953 35.4327 135.212 37.1779 135.212 38.1827C135.212 39.1875 135.794 41.1971 138.919 41.1971C142.044 41.1971 143.844 36.1202 142.997 30.6731C142.15 25.226 143.368 22.6875 143.368 22.6875C143.368 22.6875 141.567 24.3269 140.561 26.125C139.554 27.9231 140.243 28.2404 139.078 28.2404C137.754 28.3461 137.383 27.5 138.019 25.8077Z" fill="#770009"/>
<path d="M5.93174 45.3221C5.93174 45.3221 4.76658 44.1587 3.76031 42.8894C2.75404 41.5673 0.529647 43.7356 0.264839 46.75C3.04282e-05 49.7644 6.35543 52.3029 12.1283 53.625C17.9011 54.9471 28.9701 53.5721 34.7429 48.0721C40.5157 42.5721 41.7338 38.3413 38.3443 31.5192C34.9547 24.6442 32.7833 22.9519 36.8084 16.7115C40.8335 10.4712 56.1924 6.98077 63.1833 8.9375C70.1742 10.8942 69.4328 12.2163 71.7631 10.3125C74.0934 8.40865 77.9067 3.96635 75.2586 2.53846C72.6105 1.11058 59.3171 -2.27404 43.0049 4.07212C26.6927 10.4183 20.9199 24.2212 24.7861 31.2548C28.6523 38.2885 29.3408 40.4567 25.5805 45.2163C21.8202 49.9231 11.5457 50.8221 5.93174 45.3221Z" fill="white"/>
<path fill-rule="evenodd" clip-rule="evenodd" d="M104.758 7.8269C103.487 7.66825 102.958 7.87978 102.322 9.2019C101.634 10.524 100.204 12.9038 100.204 12.9038C100.204 12.9038 99.5681 9.30767 95.649 8.77882C91.6768 8.24998 87.9166 12.1634 84.527 18.5096C81.1375 24.8557 81.0316 28.399 81.0316 28.399C81.0316 28.399 75.3647 35.0625 73.511 34.1634C72.2908 33.5716 75.2704 29.8402 77.7817 26.6953L77.7817 26.6953C79.0853 25.0628 80.2627 23.5884 80.6608 22.7932C81.6099 20.8978 81.5399 20.7218 80.9375 19.2068L80.9374 19.2066C80.8003 18.8618 80.6355 18.4475 80.449 17.9279C79.4427 15.125 77.2183 11.0529 75.4176 11.0529C73.86 11.0529 73.686 12.1732 73.4502 13.692L73.4502 13.6921C73.4054 13.9807 73.3583 14.2837 73.2991 14.5961C72.9814 16.5529 69.5389 23.8509 63.819 30.6731C58.0991 37.4952 54.8155 39.5577 51.6908 39.5577C48.566 39.5577 49.943 35.4856 49.943 35.4856C49.943 35.4856 54.0211 35.5384 59.1584 30.7259C64.2957 25.9134 67.8441 19.1971 63.819 16.3413C59.741 13.4856 51.5849 18.3509 45.5472 29.0865C39.4566 39.875 48.4072 46.274 55.0803 42.149C61.7535 38.024 68.4267 29.9856 72.9814 21.524C72.9814 21.524 74.2525 23.5865 73.564 24.9086C73.4176 25.1897 73.0701 25.7266 72.6137 26.4318C70.9232 29.0437 67.7382 33.9648 67.7382 36.7548C67.7382 40.2981 72.081 40.2981 75.2587 37.7067C76.9986 36.2638 78.131 34.8045 78.8935 33.8218C79.5004 33.0397 79.873 32.5595 80.1312 32.6298C80.3093 32.6783 80.4824 32.9245 80.7202 33.2626C81.2603 34.0305 82.1339 35.2726 84.1563 35.75C87.0692 36.4375 90.035 34.7981 90.035 34.7981C90.035 34.7981 85.904 41.5144 79.1249 45.2163C73.2366 48.3613 71.1643 47.1458 68.8733 45.802C68.5061 45.5867 68.1332 45.368 67.7382 45.1634C64.8782 43.6827 63.1305 43.9471 59.1584 44.6875C55.1863 45.4279 51.4789 46.3269 51.4789 47.3846C51.4789 48.3894 60.0058 53.0432 71.5514 51.9327C83.0971 50.8221 92.2594 45.3221 97.0789 33.9519C99.0449 29.3138 100.491 25.6613 101.697 22.6139L101.697 22.6138C103.449 18.1905 104.695 15.042 106.294 12.0048C108.5 7.73164 106.847 7.78866 105.499 7.83517C105.229 7.84449 104.971 7.85339 104.758 7.8269ZM54.7096 23.5865C58.0991 19.7788 60.2176 18.8269 60.9591 19.4086C61.7005 19.9904 59.9528 23.2163 57.9403 25.8077C55.9277 28.399 52.6441 30.9904 51.0023 31.0961C51.0023 31.0985 51.0029 31.0933 51.0045 31.0807C51.0372 30.8146 51.473 27.2729 54.7096 23.5865ZM91.2002 29.5625C93.6894 26.125 97.2378 19.6731 97.4497 15.4952C97.4497 15.4952 97.9793 12.2692 94.7486 13.3269C91.518 14.3846 87.4399 25.3846 86.9633 29.4038C86.4866 33.3702 88.764 33 91.2002 29.5625Z" fill="white"/>
<path d="M121.017 4.54807C121.017 6.98076 119.058 8.93749 116.621 8.93749C114.185 8.93749 112.226 6.98076 112.226 4.54807C112.226 2.11537 114.185 0.158644 116.621 0.158644C119.058 0.105759 121.017 2.11537 121.017 4.54807Z" fill="white"/>
<path fill-rule="evenodd" clip-rule="evenodd" d="M117.204 18.9856C120.382 12.5336 125.307 13.9615 125.307 13.9615C131.557 10.3654 134.575 15.5481 132.298 23.6923C130.074 31.7836 123.665 39.5577 118.899 39.5577C114.185 39.5577 113.602 34.375 113.602 34.375C112.861 36.0144 109.471 39.0288 106.347 38.8702C103.222 38.7115 100.362 35.8029 103.222 27.1827C106.082 18.5625 111.484 11.1586 111.908 11C112.331 10.8413 115.35 10.3654 116.568 11.5817C117.308 12.3205 116.563 13.3325 115.425 14.8784C114.689 15.8775 113.789 17.0997 113.02 18.6154C111.06 22.5288 106.029 33.5288 107.936 34.9038C109.842 36.2788 113.497 30.7788 113.497 30.7788C113.497 30.7788 113.973 25.4375 117.204 18.9856ZM118.634 31.6779C117.681 36.8606 119.375 38.7115 121.282 36.5961C123.189 34.4808 126.366 26.9711 126.26 26.6009C126.235 26.4992 126.081 26.373 125.855 26.1885C125.144 25.6057 123.722 24.4415 123.4 21.6298C123.4 21.6298 119.587 26.4952 118.634 31.6779Z" fill="white"/>
<path d="M138.177 17.0817C138.177 17.0817 138.76 15.7067 140.084 15.1779C141.408 14.7019 142.467 13.5384 141.143 12.0577C139.819 10.5769 137.171 10.6298 136.747 11.1586C136.324 11.7404 134.735 16.1827 135.211 18.6154C135.741 21.1009 137.542 20.3077 138.177 17.0817Z" fill="white"/>
<path d="M137.648 25.0673C137.648 25.0673 140.984 17.7692 143.738 16.1298C146.492 14.5433 151.312 15.0192 151.1 17.5048C150.941 20.0961 147.234 19.4615 147.234 26.9183C147.234 34.375 150.253 34.3221 147.075 41.25C143.897 48.1779 134.629 46.6971 132.246 42.5721C129.862 38.4471 131.663 35.3798 133.623 35.0625C135.529 34.7452 134.788 36.4904 134.788 37.4952C134.788 38.5 135.37 40.5096 138.495 40.5096C141.62 40.5096 143.42 35.4327 142.573 29.9856C141.726 24.5385 142.944 22 142.944 22C142.944 22 141.143 23.6394 140.137 25.4375C139.131 27.2356 139.819 27.5529 138.654 27.5529C137.436 27.6058 137.012 26.8125 137.648 25.0673Z" fill="white"/>
<path fill-rule="evenodd" clip-rule="evenodd" d="M148.345 46.8029C149.14 46.8029 149.775 46.1683 149.775 45.375C149.775 44.5817 149.14 43.9471 148.345 43.9471C147.498 43.9471 146.862 44.5817 146.862 45.375C146.862 46.1683 147.551 46.8029 148.345 46.8029ZM148.345 46.4856C147.71 46.4856 147.233 46.0096 147.233 45.375C147.233 44.7404 147.71 44.2644 148.292 44.2115C148.928 44.2115 149.404 44.7404 149.404 45.375C149.404 46.0096 148.981 46.4856 148.345 46.4856ZM148.027 46.1154H147.763V44.6875C147.807 44.6875 147.869 44.6784 147.941 44.6678C148.044 44.6528 148.168 44.6346 148.292 44.6346C148.557 44.6346 148.663 44.6875 148.769 44.7404C148.875 44.7933 148.928 44.899 148.928 45.0577C148.928 45.2163 148.822 45.3221 148.61 45.375C148.769 45.4279 148.822 45.5337 148.875 45.7452C148.893 45.8157 148.904 45.8745 148.914 45.9234C148.934 46.0214 148.945 46.0801 148.981 46.1154H148.61C148.575 46.0801 148.563 46.0214 148.543 45.9234C148.534 45.8745 148.522 45.8157 148.504 45.7452C148.504 45.5865 148.398 45.5337 148.186 45.5337H148.027V46.1154ZM148.292 45.3221H148.133V44.899H148.292C148.504 44.899 148.61 45.0048 148.61 45.1106C148.61 45.2692 148.451 45.3221 148.292 45.3221Z" fill="white"/>
<path d="M93.1153 52.3889L92.2692 50.8333C92.2163 50.7778 92.1634 50.6667 92.1105 50.5555C92.1105 50.6111 92.1105 50.7222 92.1105 50.8889V53.3889C92.1105 53.5 92.0047 53.5555 91.7932 53.5555H91.6874C91.4759 53.5555 91.3701 53.5 91.3701 53.3889V49.4444C91.3701 49.3333 91.4759 49.2778 91.6874 49.2778H91.9518C92.1105 49.2778 92.2163 49.3333 92.2692 49.4444L93.274 51.3333C93.3268 51.3889 93.3268 51.4444 93.3797 51.5555C93.3797 51.5 93.4326 51.4444 93.4855 51.3333L94.4903 49.4444C94.5432 49.3333 94.649 49.2778 94.8076 49.2778H95.072C95.2836 49.2778 95.3893 49.3333 95.3893 49.4444V53.3889C95.3893 53.5 95.2836 53.5555 95.072 53.5555H94.9663C94.7547 53.5555 94.649 53.5 94.649 53.3889V50.8889C94.649 50.7778 94.649 50.6667 94.649 50.5555C94.5961 50.6667 94.5432 50.7222 94.4903 50.8333L93.6442 52.3333C93.5913 52.3889 93.5384 52.4444 93.4326 52.4444H93.2211C93.2211 52.5 93.1682 52.5 93.1153 52.3889Z" fill="white"/>
<path fill-rule="evenodd" clip-rule="evenodd" d="M97.5576 53.3889V53.5C97.5576 53.5555 97.6634 53.6111 97.8749 53.6111H98.0865C98.2451 53.6111 98.298 53.5555 98.3509 53.5L98.6153 52.6666H100.096L100.361 53.5C100.413 53.5555 100.519 53.6111 100.678 53.6111H100.836C100.995 53.6111 101.101 53.5555 101.101 53.5V53.3889L99.7788 49.4444C99.7259 49.3889 99.6201 49.3333 99.4615 49.3333H99.197C98.9855 49.3333 98.8797 49.3889 98.8797 49.4444L97.5576 53.3889ZM99.4086 50.6111L99.8317 51.9444H98.774L99.197 50.6111C99.197 50.5555 99.197 50.5 99.2499 50.3889C99.3028 50.2778 99.3028 50.2222 99.3028 50.2222C99.326 50.2953 99.339 50.3577 99.3508 50.4141C99.3659 50.4863 99.3789 50.5487 99.4086 50.6111Z" fill="white"/>
<path fill-rule="evenodd" clip-rule="evenodd" d="M103.216 49.5555V53.4444C103.216 53.5555 103.322 53.6111 103.48 53.5H103.639C103.85 53.5 103.956 53.4444 103.956 53.3333V51.7778H104.274C104.432 51.7778 104.591 51.8333 104.697 51.8889C104.802 51.9444 104.908 52.0555 104.961 52.2222L105.437 53.4444C105.49 53.5 105.596 53.5555 105.754 53.5555H105.913C106.124 53.5555 106.23 53.5 106.23 53.4444V53.3333L105.754 52.0555C105.721 51.9509 105.667 51.8682 105.618 51.7936C105.589 51.7494 105.562 51.708 105.543 51.6666C105.437 51.5555 105.384 51.5 105.278 51.4444C105.49 51.3333 105.649 51.2222 105.754 51.0555C105.86 50.8889 105.913 50.6666 105.913 50.4444C105.913 50.0555 105.754 49.7778 105.543 49.6111C105.331 49.4444 104.961 49.3333 104.485 49.3333H103.427C103.374 49.3333 103.322 49.3333 103.269 49.3889C103.216 49.4444 103.216 49.5 103.216 49.5555ZM104.961 51C104.855 51.1111 104.749 51.1666 104.591 51.1666H103.956V50H104.538C104.697 50 104.855 50.0555 104.961 50.1666C105.067 50.2222 105.12 50.3889 105.12 50.5555C105.12 50.7222 105.067 50.8889 104.961 51Z" fill="white"/>
<path d="M108.399 53.4444V49.5C108.399 49.3889 108.505 49.3333 108.717 49.3333H108.875C109.087 49.3333 109.193 49.3889 109.193 49.5V51.2222L110.356 49.4444C110.409 49.3889 110.515 49.3333 110.673 49.3333H110.885C110.991 49.3333 111.044 49.3333 111.097 49.3333C111.149 49.3333 111.149 49.3889 111.149 49.3889C111.149 49.4444 111.149 49.4444 111.097 49.5L109.88 51.3333L111.308 53.3889C111.361 53.4444 111.361 53.5 111.361 53.5C111.361 53.5555 111.255 53.6111 111.044 53.6111H110.779C110.621 53.6111 110.462 53.5555 110.462 53.5L109.193 51.6111V53.4444C109.193 53.5555 109.087 53.6111 108.875 53.6111H108.717C108.505 53.6111 108.399 53.5555 108.399 53.4444Z" fill="white"/>
<path d="M113.476 53.5555C113.423 53.5 113.423 53.4444 113.423 53.3889V49.5555C113.423 49.5 113.423 49.3889 113.476 49.3889C113.529 49.3333 113.582 49.3333 113.634 49.3333H115.644C115.697 49.3333 115.75 49.3333 115.75 49.3889C115.75 49.4444 115.803 49.5 115.803 49.6111V49.7778C115.803 49.8889 115.803 49.9444 115.75 50C115.697 50.0555 115.697 50.0555 115.644 50.0555H114.163V51.1111H115.485C115.538 51.1111 115.591 51.1111 115.591 51.1666C115.591 51.2222 115.644 51.2778 115.644 51.3889V51.5555C115.644 51.6666 115.644 51.7222 115.591 51.7778C115.591 51.8333 115.538 51.8333 115.485 51.8333H114.163V53H115.644C115.697 53 115.75 53 115.75 53.0555C115.75 53.1111 115.803 53.1666 115.803 53.2778V53.4444C115.803 53.5555 115.803 53.6111 115.75 53.6666C115.75 53.7222 115.697 53.7222 115.644 53.7222H113.582C113.582 53.6111 113.529 53.5555 113.476 53.5555Z" fill="white"/>
<path d="M119.029 53.4444V50H118.024C117.971 50 117.918 50 117.918 49.9444C117.918 49.8889 117.865 49.8333 117.865 49.7222V49.5555C117.865 49.4444 117.865 49.3889 117.918 49.3333C117.971 49.2778 117.971 49.2778 118.024 49.2778H120.774C120.827 49.2778 120.88 49.2778 120.88 49.3333C120.88 49.3889 120.933 49.4444 120.933 49.5555V49.7222C120.933 49.8333 120.933 49.8889 120.88 49.9444C120.88 50 120.827 50 120.774 50H119.769V53.4444C119.769 53.5555 119.663 53.6111 119.452 53.6111H119.293C119.134 53.6111 119.029 53.5555 119.029 53.4444Z" fill="white"/>
<path fill-rule="evenodd" clip-rule="evenodd" d="M123.101 53.4444C123.101 53.5 123.101 53.5 123.153 53.5555C123.206 53.6111 123.312 53.6111 123.418 53.6111H123.577C123.788 53.6111 123.894 53.5555 123.894 53.4444V51.9444H124.634C124.76 51.9444 124.885 51.9096 125.037 51.8676C125.077 51.8565 125.119 51.8449 125.163 51.8333C125.375 51.7778 125.533 51.6666 125.692 51.4444C125.851 51.2222 125.903 50.9444 125.903 50.6111C125.903 50.1111 125.745 49.7778 125.48 49.6111C125.216 49.4444 124.899 49.3333 124.528 49.3333H123.312C123.259 49.3333 123.206 49.3333 123.153 49.3889C123.101 49.4444 123.101 49.5 123.101 49.5555V53.4444ZM124.858 51.1454C124.746 51.1874 124.654 51.2222 124.528 51.2222H123.894V50.0555H124.528C124.687 50.0555 124.846 50.0555 124.952 50.1666C125.057 50.2222 125.11 50.3889 125.11 50.6111C125.11 50.8333 125.11 51.0555 124.952 51.1111C124.918 51.1227 124.888 51.1343 124.858 51.1454Z" fill="white"/>
<path d="M128.178 53.5555C128.125 53.5 128.125 53.4444 128.125 53.3889V49.5C128.125 49.3889 128.231 49.3333 128.442 49.3333H128.601C128.707 49.3333 128.812 49.3333 128.812 49.3889C128.865 49.4444 128.865 49.4444 128.865 49.5V52.9444H130.24C130.293 52.9444 130.346 52.9444 130.346 53C130.346 53.0555 130.399 53.1111 130.399 53.2222V53.3889C130.399 53.5 130.399 53.5555 130.346 53.6111C130.293 53.6666 130.293 53.6666 130.24 53.6666H128.337C128.284 53.6111 128.231 53.5555 128.178 53.5555Z" fill="white"/>
<path fill-rule="evenodd" clip-rule="evenodd" d="M132.145 53.3889V53.5C132.145 53.5555 132.25 53.6111 132.515 53.6111H132.673C132.832 53.6111 132.885 53.5555 132.938 53.5L133.202 52.6666H134.683L134.947 53.5C135 53.5555 135.106 53.6111 135.265 53.6111H135.423C135.582 53.6111 135.688 53.5555 135.688 53.5V53.3889L134.366 49.4444C134.313 49.3889 134.207 49.3333 134.048 49.3333H133.784C133.572 49.3333 133.467 49.3889 133.467 49.4444L132.145 53.3889ZM133.995 50.6111L134.419 51.9444H133.361L133.784 50.6111C133.784 50.5555 133.784 50.5 133.837 50.3889C133.89 50.2778 133.89 50.2222 133.89 50.2222C133.913 50.2953 133.926 50.3577 133.938 50.4141C133.953 50.4863 133.966 50.5487 133.995 50.6111Z" fill="white"/>
<path d="M138.12 53.1111C137.803 52.7778 137.645 52.2222 137.645 51.4444C137.645 50 138.279 49.2778 139.548 49.2778C139.76 49.2778 139.919 49.2778 140.13 49.3333C140.342 49.3889 140.5 49.4444 140.606 49.5C140.712 49.5555 140.765 49.6111 140.765 49.6667C140.765 49.7222 140.765 49.7778 140.712 49.8333C140.659 49.8889 140.606 50 140.606 50.0555C140.553 50.1111 140.5 50.1667 140.5 50.1667C140.5 50.1667 140.447 50.1667 140.342 50.1111C140.236 50.0555 140.183 50.0555 140.024 50C139.919 49.9444 139.76 49.9444 139.601 49.9444C139.231 49.9444 138.914 50.0555 138.755 50.3333C138.596 50.5555 138.491 50.9444 138.491 51.4444C138.491 51.9444 138.596 52.3333 138.755 52.5555C138.914 52.7778 139.231 52.9444 139.601 52.9444C139.76 52.9444 139.919 52.9444 140.077 52.8889C140.183 52.8333 140.342 52.7778 140.447 52.7222C140.5 52.6667 140.553 52.6667 140.553 52.6667C140.606 52.6667 140.659 52.7222 140.659 52.7778C140.712 52.8333 140.765 52.8889 140.765 53C140.818 53.0555 140.818 53.1111 140.818 53.1667C140.818 53.2778 140.765 53.3333 140.606 53.4444C140.5 53.5 140.342 53.5555 140.13 53.6111C139.919 53.6667 139.76 53.6667 139.548 53.6667C138.914 53.6111 138.385 53.4444 138.12 53.1111Z" fill="white"/>
<path d="M143.144 53.5555C143.091 53.5 143.091 53.4444 143.091 53.3889V49.5555C143.091 49.5 143.091 49.3889 143.144 49.3889C143.197 49.3333 143.249 49.3333 143.302 49.3333H145.312C145.365 49.3333 145.418 49.3333 145.418 49.3889C145.418 49.4444 145.471 49.5 145.471 49.6111V49.7778C145.471 49.8889 145.471 49.9444 145.418 50C145.365 50.0555 145.365 50.0555 145.312 50.0555H143.884V51.1111H145.206C145.259 51.1111 145.312 51.1111 145.312 51.1666C145.312 51.2222 145.365 51.2778 145.365 51.3889V51.5555C145.365 51.6666 145.365 51.7222 145.312 51.7778C145.312 51.8333 145.259 51.8333 145.206 51.8333H143.884V53H145.365C145.418 53 145.471 53 145.471 53.0555C145.471 53.1111 145.524 53.1666 145.524 53.2778V53.4444C145.524 53.5555 145.524 53.6111 145.471 53.6666C145.471 53.7222 145.418 53.7222 145.365 53.7222H143.302C143.249 53.6111 143.197 53.5555 143.144 53.5555Z" fill="white"/>
</svg>
