<svg width="152" height="57" viewBox="0 0 152 57" fill="none" xmlns="http://www.w3.org/2000/svg">
<path d="M6.30283 48.0096C6.30283 48.0096 5.13767 46.8461 4.1314 45.5769C3.12513 44.2547 0.900741 46.423 0.635933 49.4374C0.371124 52.4519 6.72652 54.9903 12.4993 56.3124C18.2722 57.6346 29.3412 56.2596 35.114 50.7596C40.8338 45.2596 42.052 41.0288 38.6624 34.2067C35.2729 27.3317 33.1014 25.6394 37.1265 19.399C41.1516 13.1586 56.5105 9.66821 63.5014 11.6249C70.4924 13.5817 69.7509 14.9038 72.0812 12.9999C74.4115 11.0961 78.2248 6.65379 75.5767 5.2259C72.9286 3.79802 59.6352 0.413401 43.323 6.75955C27.0108 13.1057 21.238 26.9086 25.1042 33.9422C28.9704 40.9759 29.6589 43.1442 25.8987 47.9038C22.1384 52.6634 11.9168 53.5096 6.30283 48.0096Z" fill="#770009"/>
<path fill-rule="evenodd" clip-rule="evenodd" d="M105.129 10.5144C103.858 10.3557 103.381 10.5673 102.692 11.8894C102.004 13.2115 100.574 15.5913 100.574 15.5913C100.574 15.5913 99.9384 11.9951 96.0193 11.4663C92.0471 10.9374 88.2868 14.8509 84.8973 21.1971C81.5078 27.5432 81.4018 31.0865 81.4018 31.0865C81.4018 31.0865 75.7349 37.7499 73.8813 36.8509C72.661 36.2591 75.6407 32.5277 78.152 29.3828L78.152 29.3828C79.4556 27.7503 80.6329 26.2759 81.0311 25.4807C81.9802 23.5853 81.9102 23.4093 81.3077 21.8942L81.3077 21.8941C81.1705 21.5492 81.0058 21.135 80.8193 20.6153C79.813 17.8124 77.5886 13.7403 75.7879 13.7403C74.2302 13.7403 74.0563 14.8606 73.8205 16.3795L73.8205 16.3796C73.7757 16.6682 73.7286 16.9712 73.6694 17.2836C73.3517 19.2403 69.9091 26.5384 64.1893 33.3605C58.4694 40.1826 55.1858 42.298 52.0611 42.298C48.9363 42.298 50.2604 38.2259 50.2604 38.2259C50.2604 38.2259 54.3384 38.2788 59.4757 33.4663C64.613 28.6538 68.1614 21.9374 64.1363 19.0817C60.0583 16.2259 51.9022 21.0913 45.8646 31.8269C39.8799 42.5624 48.7774 48.9615 55.4506 44.8365C62.1238 40.7115 68.797 32.673 73.3517 24.2115C73.3517 24.2115 74.6227 26.274 73.9342 27.5961C73.7879 27.8772 73.4404 28.4141 72.984 29.1193C71.2935 31.7311 68.1085 36.6523 68.1085 39.4423C68.1085 42.9855 72.4513 42.9855 75.629 40.3942C77.3689 38.9513 78.5013 37.492 79.2638 36.5093C79.8707 35.7271 80.2433 35.2469 80.5015 35.3173C80.6796 35.3658 80.8527 35.612 81.0905 35.9501C81.6306 36.718 82.5042 37.9601 84.5266 38.4374C87.4395 39.1249 90.4053 37.4855 90.4053 37.4855C90.4053 37.4855 86.2743 44.2019 79.4952 47.9038C73.6069 51.0488 71.5346 49.8333 69.2435 48.4895C68.8763 48.2741 68.5035 48.0555 68.1085 47.8509C65.2485 46.3701 63.4478 46.6346 59.5287 47.3749C55.5565 48.1153 51.8492 49.0144 51.8492 50.0721C51.8492 51.0769 60.376 55.7307 71.9217 54.6201C83.4673 53.5624 92.6297 48.0096 97.4492 36.6394C99.3388 32.132 100.746 28.5637 101.924 25.5755L101.924 25.5754C103.718 21.0256 104.981 17.8204 106.612 14.6923C108.832 10.476 107.223 10.5111 105.904 10.5399C105.618 10.5461 105.346 10.552 105.129 10.5144ZM55.0269 26.3269C58.4165 22.5192 60.5349 21.5673 61.2764 22.149C62.0179 22.7307 60.2701 25.9567 58.2576 28.548C56.245 31.1394 52.9614 33.7307 51.3196 33.8365C51.3196 33.8365 51.6903 30.1346 55.0269 26.3269ZM91.5175 32.2499C94.0067 28.8124 97.5551 22.3605 97.767 18.1826C97.767 18.1826 98.2966 15.0096 95.0659 16.0144C91.8353 17.0721 87.7572 28.0721 87.2806 32.0913C86.8039 36.0576 89.0813 35.6874 91.5175 32.2499Z" fill="#770009"/>
<path d="M121.388 7.23549C121.388 9.66818 119.429 11.6249 116.992 11.6249C114.556 11.6249 112.597 9.66818 112.597 7.23549C112.597 4.8028 114.556 2.84607 116.992 2.84607C119.376 2.84607 121.388 4.8028 121.388 7.23549Z" fill="#770009"/>
<path fill-rule="evenodd" clip-rule="evenodd" d="M117.522 21.673C120.7 15.2211 125.625 16.649 125.625 16.649C131.875 13.0528 134.947 18.2355 132.616 26.4326C130.392 34.524 123.984 42.298 119.217 42.298C114.503 42.298 113.921 37.1153 113.921 37.1153C113.179 38.7548 109.79 41.7692 106.665 41.6105C103.54 41.399 100.68 38.4903 103.54 29.8701C106.4 21.25 111.802 13.8461 112.226 13.6875C112.65 13.5288 115.669 13.0528 116.887 14.2692C117.627 15.008 116.881 16.02 115.743 17.5658C115.008 18.565 114.108 19.7872 113.338 21.3028C111.379 25.2163 106.347 36.2163 108.254 37.5913C110.161 38.9663 113.815 33.4663 113.815 33.4663C113.815 33.4663 114.345 28.125 117.522 21.673ZM119.005 34.3653C118.052 39.548 119.747 41.399 121.653 39.2836C123.56 37.1682 126.738 29.6586 126.632 29.2884C126.606 29.1867 126.452 29.0605 126.227 28.876C125.515 28.2932 124.094 27.1289 123.772 24.3173C123.772 24.3173 119.958 29.1826 119.005 34.3653Z" fill="#770009"/>
<path d="M138.547 19.7692C138.547 19.7692 139.13 18.3942 140.454 17.8653C141.778 17.3894 142.837 16.2259 141.513 14.7451C140.189 13.2644 137.541 13.3172 137.117 13.899C136.694 14.4807 135.105 18.923 135.581 21.3557C136.111 23.8413 137.912 22.9951 138.547 19.7692Z" fill="#770009"/>
<path d="M138.019 27.8076C138.019 27.8076 141.355 20.5095 144.109 18.8701C146.863 17.2836 151.683 17.7595 151.524 20.2451C151.365 22.7307 147.658 22.149 147.658 29.6057C147.658 37.0624 150.676 37.0095 147.499 43.9374C144.321 50.8653 135.053 49.3845 132.669 45.2595C130.286 41.1345 132.087 38.0672 134.046 37.7499C135.953 37.4326 135.212 39.1778 135.212 40.1826C135.212 41.1874 135.794 43.197 138.919 43.197C142.044 43.197 143.844 38.1201 142.997 32.673C142.15 27.2259 143.368 24.6874 143.368 24.6874C143.368 24.6874 141.567 26.3269 140.561 28.1249C139.554 29.923 140.243 30.2403 139.078 30.2403C137.754 30.3461 137.383 29.4999 138.019 27.8076Z" fill="#770009"/>
<path d="M5.93174 47.3221C5.93174 47.3221 4.76658 46.1586 3.76031 44.8894C2.75404 43.5672 0.529647 45.7355 0.264839 48.7499C3.04282e-05 51.7644 6.35543 54.3028 12.1283 55.6249C17.9011 56.9471 28.9701 55.5721 34.7429 50.0721C40.5157 44.5721 41.7338 40.3413 38.3443 33.5192C34.9547 26.6442 32.7833 24.9519 36.8084 18.7115C40.8335 12.4711 56.1924 8.98071 63.1833 10.9374C70.1742 12.8942 69.4328 14.2163 71.7631 12.3124C74.0934 10.4086 77.9067 5.96629 75.2586 4.5384C72.6105 3.11052 59.3171 -0.274099 43.0049 6.07205C26.6927 12.4182 20.9199 26.2211 24.7861 33.2547C28.6523 40.2884 29.3408 42.4567 25.5805 47.2163C21.8202 51.923 11.5457 52.8221 5.93174 47.3221Z" fill="#D42A2F"/>
<path fill-rule="evenodd" clip-rule="evenodd" d="M104.758 9.82687C103.487 9.66822 102.958 9.87975 102.322 11.2019C101.634 12.524 100.204 14.9038 100.204 14.9038C100.204 14.9038 99.5681 11.3076 95.649 10.7788C91.6768 10.2499 87.9166 14.1634 84.527 20.5096C81.1375 26.8557 81.0316 30.399 81.0316 30.399C81.0316 30.399 75.3647 37.0624 73.511 36.1634C72.2908 35.5716 75.2704 31.8402 77.7817 28.6953L77.7817 28.6953C79.0853 27.0628 80.2627 25.5884 80.6608 24.7932C81.6099 22.8978 81.5399 22.7218 80.9375 21.2067L80.9374 21.2066C80.8003 20.8617 80.6355 20.4475 80.449 19.9278C79.4427 17.1249 77.2183 13.0528 75.4176 13.0528C73.86 13.0528 73.686 14.1731 73.4502 15.692L73.4502 15.6921C73.4054 15.9807 73.3583 16.2837 73.2991 16.5961C72.9814 18.5528 69.5389 25.8509 63.819 32.673C58.0991 39.4951 54.8155 41.5576 51.6908 41.5576C48.566 41.5576 49.943 37.4855 49.943 37.4855C49.943 37.4855 54.0211 37.5384 59.1584 32.7259C64.2957 27.9134 67.8441 21.1971 63.819 18.3413C59.741 15.4855 51.5849 20.3509 45.5472 31.0865C39.4566 41.8749 48.4072 48.274 55.0803 44.149C61.7535 40.024 68.4267 31.9855 72.9814 23.524C72.9814 23.524 74.2525 25.5865 73.564 26.9086C73.4176 27.1897 73.0701 27.7266 72.6137 28.4318C70.9232 31.0436 67.7382 35.9648 67.7382 38.7548C67.7382 42.298 72.081 42.298 75.2587 39.7067C76.9986 38.2638 78.131 36.8045 78.8935 35.8218C79.5004 35.0396 79.873 34.5594 80.1312 34.6298C80.3093 34.6783 80.4824 34.9245 80.7202 35.2626C81.2603 36.0305 82.1339 37.2726 84.1563 37.7499C87.0692 38.4374 90.035 36.798 90.035 36.798C90.035 36.798 85.904 43.5144 79.1249 47.2163C73.2366 50.3613 71.1643 49.1458 68.8733 47.802C68.5061 47.5866 68.1332 47.368 67.7382 47.1634C64.8782 45.6826 63.1305 45.9471 59.1584 46.6874C55.1863 47.4278 51.4789 48.3269 51.4789 49.3846C51.4789 50.3894 60.0058 55.0432 71.5514 53.9326C83.0971 52.8221 92.2594 47.3221 97.0789 35.9519C99.0449 31.3138 100.491 27.6613 101.697 24.6139L101.697 24.6138C103.449 20.1905 104.695 17.042 106.294 14.0048C108.5 9.73161 106.847 9.78863 105.499 9.83514C105.229 9.84446 104.971 9.85336 104.758 9.82687ZM54.7096 25.5865C58.0991 21.7788 60.2176 20.8269 60.9591 21.4086C61.7005 21.9903 59.9528 25.2163 57.9403 27.8076C55.9277 30.399 52.6441 32.9903 51.0023 33.0961C51.0023 33.0985 51.0029 33.0932 51.0045 33.0807C51.0372 32.8146 51.473 29.2729 54.7096 25.5865ZM91.2002 31.5624C93.6894 28.1249 97.2378 21.673 97.4497 17.4951C97.4497 17.4951 97.9793 14.2692 94.7486 15.3269C91.518 16.3846 87.4399 27.3846 86.9633 31.4038C86.4866 35.3701 88.764 34.9999 91.2002 31.5624Z" fill="#D42A2F"/>
<path d="M121.017 6.54804C121.017 8.98073 119.058 10.9375 116.621 10.9375C114.185 10.9375 112.226 8.98073 112.226 6.54804C112.226 4.11534 114.185 2.15861 116.621 2.15861C119.058 2.10573 121.017 4.11534 121.017 6.54804Z" fill="#D42A2F"/>
<path fill-rule="evenodd" clip-rule="evenodd" d="M117.204 20.9855C120.382 14.5336 125.307 15.9615 125.307 15.9615C131.557 12.3653 134.575 17.548 132.298 25.6923C130.074 33.7836 123.665 41.5576 118.899 41.5576C114.185 41.5576 113.602 36.375 113.602 36.375C112.861 38.0144 109.471 41.0288 106.347 40.8701C103.222 40.7115 100.362 37.8028 103.222 29.1826C106.082 20.5625 111.484 13.1586 111.908 13C112.331 12.8413 115.35 12.3653 116.568 13.5817C117.308 14.3205 116.563 15.3325 115.425 16.8783C114.689 17.8775 113.789 19.0997 113.02 20.6153C111.06 24.5288 106.029 35.5288 107.936 36.9038C109.842 38.2788 113.497 32.7788 113.497 32.7788C113.497 32.7788 113.973 27.4375 117.204 20.9855ZM118.634 33.6778C117.681 38.8605 119.375 40.7115 121.282 38.5961C123.189 36.4807 126.366 28.9711 126.26 28.6009C126.235 28.4992 126.081 28.373 125.855 28.1885C125.144 27.6057 123.722 26.4414 123.4 23.6298C123.4 23.6298 119.587 28.4951 118.634 33.6778Z" fill="#D42A2F"/>
<path d="M138.177 19.0817C138.177 19.0817 138.76 17.7067 140.084 17.1779C141.408 16.7019 142.467 15.5385 141.143 14.0577C139.819 12.5769 137.171 12.6298 136.747 13.1587C136.324 13.7404 134.735 18.1827 135.211 20.6154C135.741 23.101 137.542 22.3077 138.177 19.0817Z" fill="#D42A2F"/>
<path d="M137.648 27.0673C137.648 27.0673 140.984 19.7692 143.738 18.1298C146.492 16.5432 151.312 17.0192 151.1 19.5048C150.941 22.0961 147.234 21.4615 147.234 28.9182C147.234 36.375 150.253 36.3221 147.075 43.25C143.897 50.1778 134.629 48.6971 132.246 44.5721C129.862 40.4471 131.663 37.3798 133.623 37.0625C135.529 36.7452 134.788 38.4903 134.788 39.4952C134.788 40.5 135.37 42.5096 138.495 42.5096C141.62 42.5096 143.42 37.4327 142.573 31.9855C141.726 26.5384 142.944 24 142.944 24C142.944 24 141.143 25.6394 140.137 27.4375C139.131 29.2355 139.819 29.5528 138.654 29.5528C137.436 29.6057 137.012 28.8125 137.648 27.0673Z" fill="#D42A2F"/>
<path fill-rule="evenodd" clip-rule="evenodd" d="M148.345 48.8028C149.14 48.8028 149.775 48.1682 149.775 47.3749C149.775 46.5816 149.14 45.947 148.345 45.947C147.498 45.947 146.862 46.5816 146.862 47.3749C146.862 48.1682 147.551 48.8028 148.345 48.8028ZM148.345 48.4855C147.71 48.4855 147.233 48.0095 147.233 47.3749C147.233 46.7403 147.71 46.2643 148.292 46.2114C148.928 46.2114 149.404 46.7403 149.404 47.3749C149.404 48.0095 148.981 48.4855 148.345 48.4855ZM148.027 48.1153H147.763V46.6874C147.807 46.6874 147.869 46.6783 147.941 46.6677C148.044 46.6527 148.168 46.6345 148.292 46.6345C148.557 46.6345 148.663 46.6874 148.769 46.7403C148.875 46.7932 148.928 46.8989 148.928 47.0576C148.928 47.2163 148.822 47.322 148.61 47.3749C148.769 47.4278 148.822 47.5336 148.875 47.7451C148.893 47.8156 148.904 47.8744 148.914 47.9233C148.934 48.0213 148.945 48.08 148.981 48.1153H148.61C148.575 48.08 148.563 48.0213 148.543 47.9233C148.534 47.8744 148.522 47.8156 148.504 47.7451C148.504 47.5864 148.398 47.5336 148.186 47.5336H148.027V48.1153ZM148.292 47.322H148.133V46.8989H148.292C148.504 46.8989 148.61 47.0047 148.61 47.1105C148.61 47.2691 148.451 47.322 148.292 47.322Z" fill="#D42A2F"/>
<path d="M93.1153 54.3888L92.2692 52.8333C92.2163 52.7777 92.1634 52.6666 92.1105 52.5555C92.1105 52.611 92.1105 52.7222 92.1105 52.8888V55.3888C92.1105 55.4999 92.0047 55.5555 91.7932 55.5555H91.6874C91.4759 55.5555 91.3701 55.4999 91.3701 55.3888V51.4444C91.3701 51.3333 91.4759 51.2777 91.6874 51.2777H91.9518C92.1105 51.2777 92.2163 51.3333 92.2692 51.4444L93.274 53.3333C93.3268 53.3888 93.3268 53.4444 93.3797 53.5555C93.3797 53.4999 93.4326 53.4444 93.4855 53.3333L94.4903 51.4444C94.5432 51.3333 94.649 51.2777 94.8076 51.2777H95.072C95.2836 51.2777 95.3893 51.3333 95.3893 51.4444V55.3888C95.3893 55.4999 95.2836 55.5555 95.072 55.5555H94.9663C94.7547 55.5555 94.649 55.4999 94.649 55.3888V52.8888C94.649 52.7777 94.649 52.6666 94.649 52.5555C94.5961 52.6666 94.5432 52.7222 94.4903 52.8333L93.6442 54.3333C93.5913 54.3888 93.5384 54.4444 93.4326 54.4444H93.2211C93.2211 54.4999 93.1682 54.4999 93.1153 54.3888Z" fill="#D42A2F"/>
<path fill-rule="evenodd" clip-rule="evenodd" d="M97.5576 55.3888V55.4999C97.5576 55.5555 97.6634 55.611 97.8749 55.611H98.0865C98.2451 55.611 98.298 55.5555 98.3509 55.4999L98.6153 54.6666H100.096L100.361 55.4999C100.413 55.5555 100.519 55.611 100.678 55.611H100.836C100.995 55.611 101.101 55.5555 101.101 55.4999V55.3888L99.7788 51.4444C99.7259 51.3888 99.6201 51.3333 99.4615 51.3333H99.197C98.9855 51.3333 98.8797 51.3888 98.8797 51.4444L97.5576 55.3888ZM99.4086 52.611L99.8317 53.9444H98.774L99.197 52.611C99.197 52.5555 99.197 52.4999 99.2499 52.3888C99.3028 52.2777 99.3028 52.2221 99.3028 52.2221C99.326 52.2952 99.339 52.3576 99.3508 52.414C99.3659 52.4862 99.3789 52.5486 99.4086 52.611Z" fill="#D42A2F"/>
<path fill-rule="evenodd" clip-rule="evenodd" d="M103.216 51.5555V55.4444C103.216 55.5555 103.322 55.611 103.48 55.4999H103.639C103.85 55.4999 103.956 55.4444 103.956 55.3333V53.7777H104.274C104.432 53.7777 104.591 53.8333 104.697 53.8888C104.802 53.9444 104.908 54.0555 104.961 54.2221L105.437 55.4444C105.49 55.4999 105.596 55.5555 105.754 55.5555H105.913C106.124 55.5555 106.23 55.4999 106.23 55.4444V55.3333L105.754 54.0555C105.721 53.9509 105.667 53.8681 105.618 53.7935C105.589 53.7493 105.562 53.7079 105.543 53.6666C105.437 53.5555 105.384 53.4999 105.278 53.4444C105.49 53.3333 105.649 53.2221 105.754 53.0555C105.86 52.8888 105.913 52.6666 105.913 52.4444C105.913 52.0555 105.754 51.7777 105.543 51.611C105.331 51.4444 104.961 51.3333 104.485 51.3333H103.427C103.374 51.3333 103.322 51.3333 103.269 51.3888C103.216 51.4444 103.216 51.4999 103.216 51.5555ZM104.961 52.9999C104.855 53.111 104.749 53.1666 104.591 53.1666H103.956V51.9999H104.538C104.697 51.9999 104.855 52.0555 104.961 52.1666C105.067 52.2221 105.12 52.3888 105.12 52.5555C105.12 52.7221 105.067 52.8888 104.961 52.9999Z" fill="#D42A2F"/>
<path d="M108.399 55.4444V51.4999C108.399 51.3888 108.505 51.3333 108.717 51.3333H108.875C109.087 51.3333 109.193 51.3888 109.193 51.4999V53.2221L110.356 51.4444C110.409 51.3888 110.515 51.3333 110.673 51.3333H110.885C110.991 51.3333 111.044 51.3333 111.097 51.3333C111.149 51.3333 111.149 51.3888 111.149 51.3888C111.149 51.4444 111.149 51.4444 111.097 51.4999L109.88 53.3333L111.308 55.3888C111.361 55.4444 111.361 55.4999 111.361 55.4999C111.361 55.5555 111.255 55.611 111.044 55.611H110.779C110.621 55.611 110.462 55.5555 110.462 55.4999L109.193 53.611V55.4444C109.193 55.5555 109.087 55.611 108.875 55.611H108.717C108.505 55.611 108.399 55.5555 108.399 55.4444Z" fill="#D42A2F"/>
<path d="M113.476 55.5555C113.423 55.4999 113.423 55.4444 113.423 55.3888V51.5555C113.423 51.4999 113.423 51.3888 113.476 51.3888C113.529 51.3333 113.582 51.3333 113.634 51.3333H115.644C115.697 51.3333 115.75 51.3333 115.75 51.3888C115.75 51.4444 115.803 51.4999 115.803 51.611V51.7777C115.803 51.8888 115.803 51.9444 115.75 51.9999C115.697 52.0555 115.697 52.0555 115.644 52.0555H114.163V53.111H115.485C115.538 53.111 115.591 53.111 115.591 53.1666C115.591 53.2221 115.644 53.2777 115.644 53.3888V53.5555C115.644 53.6666 115.644 53.7221 115.591 53.7777C115.591 53.8333 115.538 53.8333 115.485 53.8333H114.163V54.9999H115.644C115.697 54.9999 115.75 54.9999 115.75 55.0555C115.75 55.111 115.803 55.1666 115.803 55.2777V55.4444C115.803 55.5555 115.803 55.611 115.75 55.6666C115.75 55.7221 115.697 55.7221 115.644 55.7221H113.582C113.582 55.611 113.529 55.5555 113.476 55.5555Z" fill="#D42A2F"/>
<path d="M119.029 55.4444V51.9999H118.024C117.971 51.9999 117.918 51.9999 117.918 51.9444C117.918 51.8888 117.865 51.8333 117.865 51.7222V51.5555C117.865 51.4444 117.865 51.3888 117.918 51.3333C117.971 51.2777 117.971 51.2777 118.024 51.2777H120.774C120.827 51.2777 120.88 51.2777 120.88 51.3333C120.88 51.3888 120.933 51.4444 120.933 51.5555V51.7222C120.933 51.8333 120.933 51.8888 120.88 51.9444C120.88 51.9999 120.827 51.9999 120.774 51.9999H119.769V55.4444C119.769 55.5555 119.663 55.611 119.452 55.611H119.293C119.134 55.611 119.029 55.5555 119.029 55.4444Z" fill="#D42A2F"/>
<path fill-rule="evenodd" clip-rule="evenodd" d="M123.101 55.4444C123.101 55.4999 123.101 55.4999 123.153 55.5555C123.206 55.611 123.312 55.611 123.418 55.611H123.577C123.788 55.611 123.894 55.5555 123.894 55.4444V53.9444H124.634C124.76 53.9444 124.885 53.9096 125.037 53.8675C125.077 53.8564 125.119 53.8448 125.163 53.8333C125.375 53.7777 125.533 53.6666 125.692 53.4444C125.851 53.2221 125.903 52.9444 125.903 52.611C125.903 52.111 125.745 51.7777 125.48 51.611C125.216 51.4444 124.899 51.3333 124.528 51.3333H123.312C123.259 51.3333 123.206 51.3333 123.153 51.3888C123.101 51.4444 123.101 51.4999 123.101 51.5555V55.4444ZM124.858 53.1453C124.746 53.1874 124.654 53.2221 124.528 53.2221H123.894V52.0555H124.528C124.687 52.0555 124.846 52.0555 124.952 52.1666C125.057 52.2221 125.11 52.3888 125.11 52.611C125.11 52.8333 125.11 53.0555 124.952 53.111C124.918 53.1226 124.888 53.1342 124.858 53.1453Z" fill="#D42A2F"/>
<path d="M128.178 55.5555C128.125 55.4999 128.125 55.4444 128.125 55.3888V51.4999C128.125 51.3888 128.231 51.3333 128.442 51.3333H128.601C128.707 51.3333 128.812 51.3333 128.812 51.3888C128.865 51.4444 128.865 51.4444 128.865 51.4999V54.9444H130.24C130.293 54.9444 130.346 54.9444 130.346 54.9999C130.346 55.0555 130.399 55.111 130.399 55.2221V55.3888C130.399 55.4999 130.399 55.5555 130.346 55.611C130.293 55.6666 130.293 55.6666 130.24 55.6666H128.337C128.284 55.611 128.231 55.5555 128.178 55.5555Z" fill="#D42A2F"/>
<path fill-rule="evenodd" clip-rule="evenodd" d="M132.145 55.3888V55.4999C132.145 55.5555 132.25 55.611 132.515 55.611H132.673C132.832 55.611 132.885 55.5555 132.938 55.4999L133.202 54.6666H134.683L134.947 55.4999C135 55.5555 135.106 55.611 135.265 55.611H135.423C135.582 55.611 135.688 55.5555 135.688 55.4999V55.3888L134.366 51.4444C134.313 51.3888 134.207 51.3333 134.048 51.3333H133.784C133.572 51.3333 133.467 51.3888 133.467 51.4444L132.145 55.3888ZM133.995 52.611L134.419 53.9444H133.361L133.784 52.611C133.784 52.5555 133.784 52.4999 133.837 52.3888C133.89 52.2777 133.89 52.2221 133.89 52.2221C133.913 52.2952 133.926 52.3576 133.938 52.414C133.953 52.4862 133.966 52.5486 133.995 52.611Z" fill="#D42A2F"/>
<path d="M138.12 55.111C137.803 54.7777 137.645 54.2222 137.645 53.4444C137.645 51.9999 138.279 51.2777 139.548 51.2777C139.76 51.2777 139.919 51.2777 140.13 51.3333C140.342 51.3888 140.5 51.4444 140.606 51.4999C140.712 51.5555 140.765 51.611 140.765 51.6666C140.765 51.7222 140.765 51.7777 140.712 51.8333C140.659 51.8888 140.606 51.9999 140.606 52.0555C140.553 52.111 140.5 52.1666 140.5 52.1666C140.5 52.1666 140.447 52.1666 140.342 52.111C140.236 52.0555 140.183 52.0555 140.024 51.9999C139.919 51.9444 139.76 51.9444 139.601 51.9444C139.231 51.9444 138.914 52.0555 138.755 52.3333C138.596 52.5555 138.491 52.9444 138.491 53.4444C138.491 53.9444 138.596 54.3333 138.755 54.5555C138.914 54.7777 139.231 54.9444 139.601 54.9444C139.76 54.9444 139.919 54.9444 140.077 54.8888C140.183 54.8333 140.342 54.7777 140.447 54.7222C140.5 54.6666 140.553 54.6666 140.553 54.6666C140.606 54.6666 140.659 54.7222 140.659 54.7777C140.712 54.8333 140.765 54.8888 140.765 54.9999C140.818 55.0555 140.818 55.111 140.818 55.1666C140.818 55.2777 140.765 55.3333 140.606 55.4444C140.5 55.4999 140.342 55.5555 140.13 55.611C139.919 55.6666 139.76 55.6666 139.548 55.6666C138.914 55.611 138.385 55.4444 138.12 55.111Z" fill="#D42A2F"/>
<path d="M143.144 55.5555C143.091 55.4999 143.091 55.4444 143.091 55.3888V51.5555C143.091 51.4999 143.091 51.3888 143.144 51.3888C143.197 51.3333 143.249 51.3333 143.302 51.3333H145.312C145.365 51.3333 145.418 51.3333 145.418 51.3888C145.418 51.4444 145.471 51.4999 145.471 51.611V51.7777C145.471 51.8888 145.471 51.9444 145.418 51.9999C145.365 52.0555 145.365 52.0555 145.312 52.0555H143.884V53.111H145.206C145.259 53.111 145.312 53.111 145.312 53.1666C145.312 53.2221 145.365 53.2777 145.365 53.3888V53.5555C145.365 53.6666 145.365 53.7221 145.312 53.7777C145.312 53.8333 145.259 53.8333 145.206 53.8333H143.884V54.9999H145.365C145.418 54.9999 145.471 54.9999 145.471 55.0555C145.471 55.111 145.524 55.1666 145.524 55.2777V55.4444C145.524 55.5555 145.524 55.611 145.471 55.6666C145.471 55.7221 145.418 55.7221 145.365 55.7221H143.302C143.249 55.611 143.197 55.5555 143.144 55.5555Z" fill="#D42A2F"/>
</svg>
