<svg width="32" height="32" viewBox="0 0 32 32" fill="none" xmlns="http://www.w3.org/2000/svg">
<circle cx="16" cy="16" r="16" fill="#DB232E"/>
<path d="M23.0346 11.9286C22.5167 12.1518 21.9542 12.3125 21.3739 12.375C21.9721 12.0179 22.4275 11.4554 22.6417 10.7857C22.0882 11.1161 21.4632 11.3571 20.8114 11.4821C20.2846 10.9196 19.5346 10.5714 18.7042 10.5714C17.106 10.5714 15.8203 11.8661 15.8203 13.4554C15.8203 13.6786 15.8471 13.9018 15.8917 14.1161C13.4989 13.9911 11.365 12.8482 9.94531 11.0982C9.69531 11.5268 9.55246 12.0179 9.55246 12.5536C9.55246 13.5536 10.0614 14.4375 10.8382 14.9554C10.365 14.9375 9.91853 14.8036 9.5346 14.5893C9.5346 14.5982 9.5346 14.6161 9.5346 14.625C9.5346 16.0268 10.5257 17.1875 11.8471 17.4554C11.606 17.5179 11.3471 17.5536 11.0882 17.5536C10.9007 17.5536 10.7221 17.5357 10.5435 17.5089C10.9096 18.6518 11.9721 19.4821 13.24 19.5089C12.2489 20.2857 11.0078 20.7411 9.6596 20.7411C9.41853 20.7411 9.19531 20.7321 8.96317 20.7054C10.24 21.5268 11.7578 22 13.3917 22C18.6953 22 21.5971 17.6071 21.5971 13.7946C21.5971 13.6696 21.5971 13.5446 21.5882 13.4196C22.1507 13.0089 22.6417 12.5 23.0346 11.9286Z" fill="white"/>
</svg>
