<svg width="24" height="24" viewBox="0 0 24 24" fill="none" xmlns="http://www.w3.org/2000/svg">
<path fill-rule="evenodd" clip-rule="evenodd" d="M11.9911 12.7743H11.921C10.6378 12.7536 9.59983 12.3271 8.83778 11.5114C7.15165 9.71429 7.43194 6.63354 7.4626 6.33954C7.57209 4.11594 8.69326 3.06004 9.61296 2.56729C10.5283 2.07453 11.483 2 11.9692 2H11.9954H12.013H12.0436C12.9283 2.01656 13.721 2.21532 14.3998 2.58385C15.3108 3.0766 16.4144 4.1325 16.5239 6.33954C16.5546 6.63354 16.8349 9.71429 15.1487 11.5114C14.3823 12.3271 13.3444 12.7536 12.0611 12.7743H12.0173H11.9911ZM8.63446 6.42324C8.63327 6.42939 8.63194 6.43623 8.63194 6.44306C8.62756 6.46791 8.32975 9.29607 9.71807 10.7702C10.2655 11.3582 11.0057 11.648 11.9692 11.6563H11.9911H12.013C12.9808 11.648 13.7166 11.3582 14.2684 10.7702C15.6611 9.28778 15.3546 6.47205 15.3502 6.44306C15.3458 6.43478 15.3458 6.42236 15.3458 6.40994V6.40994C15.21 3.60248 13.1998 3.147 12.0173 3.12215H11.9823H11.9648C11.01 3.12215 8.78085 3.44099 8.63632 6.40994C8.63632 6.41366 8.63544 6.41822 8.63446 6.42324Z" fill="black"/>
<path d="M20.991 17.8841C20.991 17.8799 20.991 17.8758 20.991 17.8716C20.991 17.8385 20.9866 17.8054 20.9866 17.7681C20.9603 16.9482 20.9034 15.0311 19.0027 14.4182C18.9895 14.4141 18.972 14.4099 18.9589 14.4058C16.9837 13.9296 15.3413 12.853 15.3238 12.8406C15.0567 12.6625 14.6888 12.7246 14.5005 12.9772C14.3122 13.2298 14.3778 13.5776 14.645 13.7557C14.7194 13.8054 16.4625 14.9524 18.6435 15.4824C19.664 15.8261 19.7778 16.8571 19.8085 17.8012C19.8085 17.8385 19.8085 17.8716 19.8129 17.9048C19.8173 18.2774 19.791 18.853 19.7209 19.1843C19.0114 19.5652 16.2304 20.882 11.9997 20.882C7.7866 20.882 4.98806 19.5611 4.27419 19.1801C4.20412 18.8489 4.17346 18.2733 4.18222 17.9006C4.18222 17.8675 4.1866 17.8344 4.1866 17.7971C4.21726 16.853 4.33113 15.8219 5.35157 15.4783C7.53259 14.9482 9.27565 13.7971 9.35011 13.7515C9.61726 13.5735 9.68295 13.2257 9.49463 12.9731C9.30631 12.7205 8.93843 12.6584 8.67128 12.8364C8.65376 12.8489 7.02018 13.9255 5.03624 14.4017C5.01872 14.4058 5.00558 14.4099 4.99244 14.4141C3.09171 15.0311 3.03478 16.9482 3.0085 17.764C3.0085 17.8012 3.0085 17.8344 3.00412 17.8675C3.00412 17.8716 3.00412 17.8758 3.00412 17.8799C2.99974 18.0952 2.99536 19.2008 3.22748 19.7557C3.27127 19.8633 3.35011 19.9544 3.45522 20.0166C3.5866 20.0994 6.73551 21.9959 12.0041 21.9959C17.2727 21.9959 20.4216 20.0952 20.553 20.0166C20.6538 19.9544 20.737 19.8633 20.7808 19.7557C20.9997 19.205 20.9954 18.0994 20.991 17.8841Z" fill="black"/>
</svg>
